<svg width="453" height="183" viewBox="0 0 453 183" fill="none" xmlns="http://www.w3.org/2000/svg">
<path d="M216.704 122.048H212.879C209.453 122.044 206.168 120.681 203.745 118.258C201.323 115.836 199.96 112.551 199.956 109.125V105.914C199.956 97.9608 201.463 91.3016 204.435 86.1214C208.037 80.0958 212.239 74.4499 216.977 69.2699C220.123 66.1067 222.977 62.6665 225.505 58.9911C227.319 56.1357 228.255 52.8109 228.198 49.4286C228.198 41.4506 223.001 37.5721 212.308 37.5721C206.376 37.6392 200.482 38.5238 194.793 40.201C192.598 40.8274 190.289 40.9359 188.045 40.5181C185.802 40.1002 183.686 39.1674 181.865 37.7931C180.043 36.4187 178.565 34.6404 177.548 32.5979C176.53 30.5555 176 28.3047 176 26.0228V19.5228C175.988 16.7246 176.787 13.9829 178.301 11.63C179.816 9.27703 181.98 7.41391 184.532 6.26645C194.581 1.97802 205.418 -0.15386 216.342 0.00863773C227.787 0.00863773 238.118 1.931 247.049 5.72153C255.997 9.52085 263.066 14.8783 268.061 21.6454C273.04 28.3645 275.686 36.527 275.597 44.8895C275.597 53.8695 273.145 61.6908 268.31 68.1361C263.528 74.516 256.672 81.5003 247.934 88.8963C243.33 92.7253 238.967 96.8353 234.871 101.203C232.225 104.053 230.355 107.535 229.44 111.314C228.93 114.321 227.37 117.049 225.038 119.015C222.706 120.98 219.753 122.055 216.704 122.048Z" fill="#1F2937" fill-opacity="0.22"/>
<path d="M214.577 182.819H214.073C207.723 182.815 201.635 180.29 197.147 175.799C192.659 171.307 190.137 165.218 190.137 158.868C190.137 152.518 192.659 146.429 197.147 141.937C201.635 137.446 207.723 134.921 214.073 134.917H214.577C217.724 134.915 220.84 135.533 223.748 136.736C226.655 137.938 229.298 139.702 231.523 141.927C233.749 144.151 235.515 146.792 236.719 149.699C237.924 152.606 238.544 155.721 238.544 158.868C238.544 162.015 237.924 165.13 236.719 168.037C235.515 170.944 233.749 173.585 231.523 175.81C229.298 178.034 226.655 179.798 223.748 181C220.84 182.203 217.724 182.821 214.577 182.819Z" fill="#1F2937" fill-opacity="0.22"/>
<path d="M0.390625 71.4141L22.8125 70.9844V75.7891L15.8594 77.3906L24.4141 113.641L37.6172 71.4141L45.1953 70.9844L58.1641 114.539L68.0859 77.3906L60.7812 75.7891V71.4141L82.3828 70.9844V75.7891L76.0938 77.3906L61.9922 127H53.2031L43.5938 90.2031L41.2891 81.5703L38.7891 90.5938L28.0078 127H20L6.64062 77.3906L0.390625 75.7891V71.4141ZM99.6094 89.5781C101.328 88.1198 103.438 86.7917 105.938 85.5938C108.438 84.3958 110.99 83.7969 113.594 83.7969C117.865 83.7969 121.068 85.0729 123.203 87.625C125.339 90.151 126.406 93.6797 126.406 98.2109V120.594L132.422 122.586V127H113.203V122.586L118.398 120.672V98.9922C118.398 96.1016 117.865 93.9792 116.797 92.625C115.729 91.2708 113.945 90.5938 111.445 90.5938C109.414 90.5938 107.513 91.0755 105.742 92.0391C103.997 93.0026 102.539 94.0443 101.367 95.1641C100.195 96.2839 99.6094 96.8958 99.6094 97V120.594L104.805 122.586V127H84.8047V122.586L91.6016 120.594V71.8047L84.8047 70.2031V65.7891L99.6094 65.3984V89.5781ZM158.438 83.7969C164.349 83.7969 168.958 85.7109 172.266 89.5391C175.573 93.3411 177.227 98.4974 177.227 105.008C177.227 109.487 176.393 113.458 174.727 116.922C173.086 120.385 170.742 123.068 167.695 124.969C164.674 126.844 161.185 127.781 157.227 127.781C151.159 127.781 146.445 125.958 143.086 122.312C139.727 118.667 138.047 113.302 138.047 106.219C138.047 101.74 138.906 97.8073 140.625 94.4219C142.37 91.0104 144.779 88.3932 147.852 86.5703C150.924 84.7214 154.453 83.7969 158.438 83.7969ZM158.047 90.2031C154.089 90.2031 151.159 91.5052 149.258 94.1094C147.383 96.6875 146.445 100.581 146.445 105.789C146.445 116.18 150.182 121.388 157.656 121.414C161.562 121.414 164.401 120.086 166.172 117.43C167.943 114.747 168.828 110.737 168.828 105.398C168.828 95.2682 165.234 90.2031 158.047 90.2031ZM204.922 87C205.339 86.8438 206.38 86.5182 208.047 86.0234C209.74 85.5026 211.732 85.0078 214.023 84.5391C216.315 84.0443 218.477 83.7969 220.508 83.7969C225.352 83.7969 229.023 84.7604 231.523 86.6875C234.049 88.6146 235.312 91.7917 235.312 96.2188V120.594L241.719 122.195V126.609L229.297 127L227.617 121.414C225.898 123.133 223.906 124.63 221.641 125.906C219.401 127.156 217.018 127.781 214.492 127.781C210.716 127.781 207.773 126.74 205.664 124.656C203.555 122.547 202.5 119.591 202.5 115.789C202.5 111.362 204.089 108.198 207.266 106.297C210.443 104.37 214.987 103.406 220.898 103.406H227.305V97C227.305 94.6562 226.654 92.8724 225.352 91.6484C224.049 90.4245 222.161 89.8125 219.688 89.8125C218.255 89.8125 216.94 89.9036 215.742 90.0859C214.544 90.2682 213.594 90.4505 212.891 90.6328C212.214 90.8151 211.797 90.9323 211.641 90.9844L210.508 97H205.312L204.922 87ZM221.719 108.602C217.76 108.602 214.922 109.135 213.203 110.203C211.51 111.271 210.664 113.003 210.664 115.398C210.664 117.221 211.185 118.68 212.227 119.773C213.268 120.867 214.701 121.414 216.523 121.414C218.294 121.414 219.974 120.932 221.562 119.969C223.151 119.005 224.505 117.964 225.625 116.844C226.745 115.724 227.305 115.112 227.305 115.008V108.602H221.719ZM261.25 90.4375C262.76 88.7969 264.544 87.2865 266.602 85.9062C268.685 84.5 270.938 83.7969 273.359 83.7969C274.531 83.7969 275.638 83.888 276.68 84.0703C277.747 84.2526 278.62 84.4479 279.297 84.6562C279.974 84.8385 280.391 84.9557 280.547 85.0078L280.156 96.6094H274.922L273.75 90.5938C271.094 90.5938 268.802 91.2318 266.875 92.5078C264.948 93.7839 263.372 95.2292 262.148 96.8438V120.594L270.156 122.586V127H247.344V122.586L254.141 120.594V90.9844L247.344 89.3828V85.0078L260.547 84.6172L261.25 90.4375ZM292.93 107C292.93 111.375 293.997 114.878 296.133 117.508C298.268 120.112 301.068 121.414 304.531 121.414C306.875 121.414 309.049 121.089 311.055 120.438C313.06 119.786 314.714 119.083 316.016 118.328C317.318 117.547 317.969 117.104 317.969 117L320.781 121.141C320.781 121.245 319.909 121.896 318.164 123.094C316.445 124.266 314.31 125.346 311.758 126.336C309.232 127.299 306.549 127.781 303.711 127.781C297.409 127.781 292.63 125.88 289.375 122.078C286.146 118.276 284.531 112.99 284.531 106.219C284.531 102 285.352 98.1849 286.992 94.7734C288.659 91.362 290.977 88.6797 293.945 86.7266C296.94 84.7734 300.339 83.7969 304.141 83.7969C315.339 83.7969 320.938 90.0599 320.938 102.586C320.938 103.445 320.885 104.305 320.781 105.164C320.677 106.023 320.599 106.583 320.547 106.844L292.93 107ZM312.461 100.984C312.461 97.7292 311.758 95.099 310.352 93.0938C308.971 91.0625 306.758 90.0469 303.711 90.0469C300.612 90.0469 298.151 91.0885 296.328 93.1719C294.531 95.2552 293.503 97.8594 293.242 100.984H312.461ZM362.188 119.812L372.656 85.0078L380.234 83.7969L390.156 119.812L396.562 90.5938L390.977 89.3828V85.0078L408.984 84.6172V89.3828L404.336 90.2031L394.57 127H385.352L377.773 102.195L375.859 94.5391L374.18 102.195L366.562 127H357.383L347.383 90.5938L343.359 89.3828V85.0078L361.367 84.6172V89.3828L355.352 90.2031L362.188 119.812ZM420.977 107C420.977 111.375 422.044 114.878 424.18 117.508C426.315 120.112 429.115 121.414 432.578 121.414C434.922 121.414 437.096 121.089 439.102 120.438C441.107 119.786 442.76 119.083 444.062 118.328C445.365 117.547 446.016 117.104 446.016 117L448.828 121.141C448.828 121.245 447.956 121.896 446.211 123.094C444.492 124.266 442.357 125.346 439.805 126.336C437.279 127.299 434.596 127.781 431.758 127.781C425.456 127.781 420.677 125.88 417.422 122.078C414.193 118.276 412.578 112.99 412.578 106.219C412.578 102 413.398 98.1849 415.039 94.7734C416.706 91.362 419.023 88.6797 421.992 86.7266C424.987 84.7734 428.385 83.7969 432.188 83.7969C443.385 83.7969 448.984 90.0599 448.984 102.586C448.984 103.445 448.932 104.305 448.828 105.164C448.724 106.023 448.646 106.583 448.594 106.844L420.977 107ZM440.508 100.984C440.508 97.7292 439.805 95.099 438.398 93.0938C437.018 91.0625 434.805 90.0469 431.758 90.0469C428.659 90.0469 426.198 91.0885 424.375 93.1719C422.578 95.2552 421.549 97.8594 421.289 100.984H440.508Z" fill="#1F2937"/>
</svg>
